<svg xmlns="http://www.w3.org/2000/svg" viewBox="0 0 48 48"><path fill="#e3e3e3" d="M22.2 27.7v11.1c0 1.5-.5 2.8-1.6 3.9s-2.4 1.6-3.9 1.6H5.5c-1.5.0-2.8-.5-3.9-1.6S0 40.3.0 38.8V18.5c0-2 .4-3.9 1.2-5.7S3 9.3 4.3 8C5.7 6.7 7.2 5.6 9 4.9s3.7-1.2 5.7-1.2h1.8c.5.0.9.2 1.3.5.4.4.5.8.5 1.3v3.7c0 .5-.2.9-.5 1.3-.4.4-.8.5-1.3.5h-1.8c-2 0-3.8.7-5.2 2.2-1.4 1.4-2.2 3.2-2.2 5.2v.9c0 .8.3 1.4.8 2 .5.5 1.2.8 2 .8h6.5c1.5.0 2.8.5 3.9 1.6s1.7 2.5 1.7 4m25.8.0v11.1c0 1.5-.5 2.8-1.6 3.9s-2.4 1.6-3.9 1.6H31.4c-1.5.0-2.8-.5-3.9-1.6s-1.6-2.4-1.6-3.9V18.5c0-2 .4-3.9 1.2-5.7.8-1.8 1.8-3.4 3.2-4.7 1.3-1.3 2.9-2.4 4.7-3.2s3.7-1.2 5.7-1.2h1.8c.5.0.9.2 1.3.5.4.4.5.8.5 1.3v3.7c0 .5-.2.9-.5 1.3-.4.4-.8.5-1.3.5h-1.8c-2 0-3.8.7-5.2 2.2-1.4 1.4-2.2 3.2-2.2 5.2v.9c0 .8.3 1.4.8 2s1.2.8 2 .8h6.5c1.5.0 2.8.5 3.9 1.6 1 1.1 1.5 2.5 1.5 4"/></svg>