<svg width="24" height="24" viewBox="0 0 24 24" fill="none" xmlns="http://www.w3.org/2000/svg"><path d="M23.444 4.83402c-.814.363-1.5.375-2.228.016C22.154 4.28802 22.197 3.89302 22.536 2.83002c-.878.521-1.851.9-2.886 1.104C18.823 3.05202 17.64 2.49902 16.335 2.49902c-2.51.0-4.544 2.036-4.544 4.544C11.791 7.39902 11.831 7.74602 11.908 8.07902c-3.77598-.189-7.12498-1.998-9.36598-4.748-.391.671-.615 1.452-.615 2.285.0 1.577.803 2.967 2.02 3.782C3.20202 9.37402 2.50202 9.17002 1.89002 8.83002 1.88902 8.84902 1.88902 8.86702 1.88902 8.88702c0 2.20198 1.566 4.03998 3.646 4.45598C4.86902 13.524 4.16702 13.552 3.48202 13.422c.579 1.804 2.257 3.118 4.245 3.155-1.945 1.524-4.356 2.159-6.727997 1.881C3.00902 19.747 5.39802 20.499 7.96502 20.499 16.323 20.499 20.893 13.575 20.893 7.57002 20.893 7.37202 20.89 7.17702 20.881 6.98202 21.768 6.34202 22.834 5.74502 23.443 4.83302L23.444 4.83402z" fill="#878c91"/></svg>