<svg width="24" height="24" viewBox="0 0 24 24" fill="none" xmlns="http://www.w3.org/2000/svg"><path d="M21.9991 3.76716l-1.76-1.76C19.5421 1.30916 18.5441.910156 17.4991.910156c-1.044.0-2.042.401004-2.739 1.097004l-3.964 3.964C10.2551 6.51316 9.95605 7.23516 9.95605 8.00416S10.2551 9.49616 10.7991 10.0382L10.8851 10.1252C11.0501 10.2902 11.2691 10.3802 11.5011 10.3802 11.7821 10.3742 11.9571 10.2892 12.1211 10.1222 12.4611 9.78016 12.4601 9.22616 12.1211 8.88816L12.0341 8.80116C11.8211 8.59016 11.7051 8.30816 11.7051 8.00816 11.7051 7.70716 11.8221 7.42316 12.0341 7.21216l3.964-3.964c.756-.759 2.25-.757 3.005.0l1.756 1.757C21.1601 5.40516 21.3801 5.93916 21.3801 6.50816S21.1601 7.61116 20.7591 8.00916l-3.965 3.96404C16.3701 12.3982 15.6271 12.3962 15.2041 11.9752L15.1171 11.8882C14.7761 11.5462 14.2181 11.5442 13.8791 11.8882 13.5391 12.2282 13.5391 12.7832 13.8821 13.1272L13.9681 13.2112C14.5091 13.7532 15.2321 14.0522 16.0001 14.0522 16.7671 14.0522 17.4861 13.7542 18.0331 13.2112l3.966-3.96404c.73-.728999999999999 1.133-1.701 1.133-2.738.0-1.037-.402000000000001-2.008-1.133-2.74V3.76716z" fill="#717379"/><path d="M13.1191 13.8838C12.7771 13.5428 12.2241 13.5428 11.8821 13.8838 11.7171 14.0488 11.6271 14.2708 11.6271 14.5038c0 .234.0909999999999993.455.257.618L11.9701 15.2078C12.1811 15.4188 12.2981 15.7018 12.2981 16.0008 12.2981 16.3028 12.1811 16.5858 11.9691 16.7978l-3.96397 3.966C7.21913 21.5498 5.78613 21.5468 4.99913 20.7638l-1.758-1.758c-.401-.401-.621-.933-.621-1.502.0-.568999999999999.22-1.102.621-1.503l3.964-3.965C7.41713 11.8238 7.69913 11.7068 8.00013 11.7068H8.00213C8.30313 11.7068 8.58613 11.8238 8.80013 12.0378L8.88513 12.1218C9.05013 12.2868 9.26913 12.3768 9.50213 12.3768 9.50413 12.3768 9.50413 12.3768 9.50513 12.3768 9.73913 12.3768 9.95813 12.2838 10.1211 12.1188 10.4621 11.7768 10.4601 11.2238 10.1211 10.8838L10.0331 10.7968c-1.12197-1.11903-2.94597-1.11903-4.06697.0l-3.964 3.966c-1.510001 1.511-1.510001 3.969.0 5.48l1.756 1.756c.73.728999999999999 1.702 1.131 2.74 1.131 1.038.0 2.01-.402000000000001 2.741-1.131l3.96397-3.966C13.7461 17.4928 14.0461 16.7698 14.0461 16.0018 14.0461 15.2308 13.7461 14.5098 13.2081 13.9708L13.1201 13.8828 13.1191 13.8838z" fill="#717379"/><path d="M7.49216 16.5078 7.49416 16.5108c.162.16.389.254000000000001.62.254000000000001C8.34216 16.7648 8.56516 16.6718 8.73316 16.5098L16.5102 8.73084C16.8522 8.38884 16.8522 7.83484 16.5102 7.49284 16.3452 7.32784 16.1252 7.23584 15.8922 7.23584 15.8902 7.23584 15.8902 7.23584 15.8892 7.23584 15.6572 7.23584 15.4372 7.32684 15.2742 7.49284L7.49516 15.2718C7.15316 15.6108 7.15316 16.1658 7.49216 16.5078v0z" fill="#717379"/></svg>